<?xml version="1.0" standalone="no"?>
<!DOCTYPE svg PUBLIC "-//W3C//DTD SVG 20010904//EN"
 "http://www.w3.org/TR/2001/REC-SVG-20010904/DTD/svg10.dtd">
<svg version="1.0" xmlns="http://www.w3.org/2000/svg"
 width="1080.000000pt" height="1080.000000pt" viewBox="0 0 1080.000000 1080.000000"
 preserveAspectRatio="xMidYMid meet">
<metadata>
Created by potrace 1.14, written by Peter Selinger 2001-2017
</metadata>
<g transform="translate(0.000000,1080.000000) scale(0.100000,-0.100000)"
fill="#000000" stroke="none">
<path d="M10791 9654 c0 -11 3 -14 6 -6 3 7 2 16 -1 19 -3 4 -6 -2 -5 -13z"/>
<path d="M2764 8829 c-3 -5 -14 -9 -25 -9 -10 0 -19 -4 -19 -10 0 -5 -5 -10
-11 -10 -45 0 -93 -143 -64 -190 5 -8 9 -26 9 -40 1 -14 6 -24 14 -22 7 1 12
-9 12 -28 0 -17 9 -39 20 -50 11 -11 20 -26 20 -34 0 -8 9 -21 20 -29 11 -8
17 -17 13 -20 -3 -4 -1 -7 5 -7 7 0 12 -9 12 -20 0 -11 9 -25 20 -32 11 -7 20
-20 20 -29 0 -9 9 -24 20 -34 11 -10 20 -22 20 -28 0 -5 15 -26 33 -47 49 -57
64 -76 92 -120 14 -23 32 -43 40 -46 7 -3 19 -19 25 -35 7 -16 19 -29 27 -29
8 0 20 -13 26 -30 6 -16 15 -30 19 -30 4 0 15 -15 24 -32 9 -18 36 -54 60 -80
24 -26 44 -52 44 -57 0 -6 18 -29 40 -53 22 -24 40 -46 40 -50 0 -4 -11 -10
-25 -14 -13 -3 -36 -22 -51 -41 -15 -19 -41 -41 -58 -48 -17 -8 -47 -30 -65
-49 -19 -20 -40 -36 -47 -36 -7 0 -20 -7 -28 -16 -15 -14 -19 -13 -47 10 -17
14 -34 26 -37 26 -4 0 -15 13 -24 29 -9 17 -34 39 -55 50 -21 11 -53 38 -72
60 -19 23 -53 51 -77 63 -24 12 -44 25 -44 28 0 4 -35 25 -77 46 -43 21 -94
50 -113 65 -40 30 -137 79 -158 79 -7 0 -34 12 -60 27 -26 15 -49 27 -52 26
-3 -1 -28 10 -57 23 -28 14 -68 27 -89 30 -20 2 -43 9 -51 16 -7 6 -16 8 -19
5 -3 -3 -17 -2 -30 3 -47 18 -141 21 -157 6 -8 -8 -17 -13 -20 -10 -6 7 -78
-38 -96 -60 -36 -43 -27 -201 16 -298 12 -25 19 -49 17 -51 -6 -6 35 -85 47
-93 5 -3 9 -23 9 -45 0 -29 7 -47 23 -63 13 -13 43 -64 66 -112 24 -49 46 -91
50 -94 3 -3 18 -31 33 -62 15 -32 32 -58 37 -58 10 0 41 -56 41 -75 0 -6 16
-29 36 -50 19 -21 51 -65 71 -97 20 -32 41 -58 47 -58 6 0 17 -12 23 -27 13
-27 5 -42 -23 -43 -18 0 -124 -120 -124 -141 0 -10 -7 -19 -15 -19 -8 0 -15
-6 -15 -14 0 -8 -7 -16 -15 -20 -8 -3 -15 -15 -15 -26 0 -12 -13 -40 -28 -63
-38 -57 -82 -196 -82 -260 0 -58 -20 -97 -49 -97 -10 0 -47 -15 -82 -34 -35
-18 -100 -52 -144 -75 -43 -23 -87 -48 -95 -56 -9 -8 -22 -15 -29 -15 -7 0
-26 -11 -43 -25 -16 -14 -38 -25 -48 -25 -16 0 -60 -22 -140 -69 -8 -5 -61
-32 -117 -60 -57 -29 -103 -56 -103 -61 0 -6 -6 -10 -13 -10 -20 0 -76 -62
-77 -85 0 -11 -3 -56 -5 -100 -13 -287 -14 -358 -5 -376 8 -13 7 -19 0 -19
-10 0 -11 -19 -10 -140 0 -8 2 -34 4 -57 2 -24 0 -43 -4 -43 -4 0 -6 -19 -4
-42 6 -71 5 -210 -1 -271 -5 -46 -3 -63 10 -76 13 -15 13 -20 2 -30 -9 -6 -12
-22 -10 -39 6 -33 4 -193 -2 -202 -2 -4 0 -22 5 -41 5 -18 6 -37 2 -41 -12
-12 -4 -121 10 -129 9 -6 9 -11 1 -21 -8 -9 -11 -131 -9 -410 l2 -397 39 -36
c40 -35 109 -65 151 -65 12 0 27 -7 34 -15 7 -8 18 -15 24 -15 7 0 36 -11 64
-25 29 -14 56 -25 61 -25 5 0 22 -7 37 -15 16 -8 38 -15 49 -15 11 0 30 -7 41
-15 12 -8 45 -24 75 -35 30 -12 61 -27 69 -34 8 -7 30 -16 48 -20 19 -3 56
-17 84 -31 27 -14 55 -25 63 -25 7 0 18 -7 25 -15 7 -8 23 -15 35 -15 13 0 25
-3 27 -8 2 -4 41 -20 88 -36 47 -15 92 -35 101 -42 9 -8 23 -12 32 -8 10 3 20
-2 27 -16 8 -15 18 -20 32 -17 11 3 27 -1 35 -9 8 -8 19 -12 24 -8 5 3 24 -4
43 -15 18 -12 42 -21 52 -21 10 0 27 -8 38 -19 12 -10 48 -28 81 -39 33 -12
97 -37 143 -56 46 -20 90 -36 98 -36 8 0 17 -7 20 -15 4 -9 19 -15 40 -15 32
0 108 -32 120 -51 3 -5 18 -9 35 -9 16 0 29 -4 29 -10 0 -5 8 -10 19 -10 10 0
24 -6 30 -14 6 -7 44 -24 84 -37 39 -12 83 -31 96 -41 13 -10 31 -18 40 -18 9
0 26 -6 37 -14 11 -8 49 -24 85 -36 35 -12 74 -28 86 -36 12 -8 30 -14 39 -14
9 0 31 -8 48 -19 17 -10 48 -22 69 -25 21 -4 40 -13 43 -21 3 -7 25 -16 49
-19 24 -4 49 -13 55 -21 6 -7 24 -17 40 -20 16 -3 34 -13 41 -21 6 -8 20 -14
31 -14 11 0 53 -16 94 -35 40 -19 79 -35 87 -35 7 0 18 -5 25 -12 7 -7 12 -8
12 -3 0 4 8 1 18 -7 17 -14 112 -48 137 -48 6 0 20 -9 30 -20 10 -11 27 -20
37 -20 10 0 29 -9 41 -21 13 -12 30 -18 42 -15 10 3 26 0 35 -7 8 -7 33 -19
55 -26 21 -8 46 -20 53 -28 8 -8 21 -12 28 -9 7 3 18 -2 23 -12 5 -10 24 -17
46 -19 20 -1 68 -18 105 -37 38 -19 71 -31 75 -28 3 4 9 2 13 -4 11 -15 149
-74 176 -74 13 0 29 -7 36 -15 7 -8 20 -15 29 -15 9 0 29 -7 45 -15 15 -8 35
-15 44 -15 9 0 25 -9 37 -20 12 -12 44 -24 71 -29 27 -4 58 -12 69 -18 101
-54 241 -113 310 -130 11 -3 34 -11 52 -19 17 -8 36 -14 42 -14 6 0 25 -9 43
-20 26 -16 51 -20 119 -20 80 0 89 2 128 30 32 24 46 28 60 21 13 -7 24 -6 38
4 11 8 49 25 85 39 36 13 74 29 84 34 10 6 80 40 154 77 74 37 149 78 167 91
17 13 38 24 46 24 21 0 191 90 200 106 4 8 16 14 26 14 22 0 74 22 116 50 17
11 40 25 53 31 12 7 22 16 22 21 0 4 13 8 29 8 17 0 33 5 36 10 3 6 27 20 53
31 26 12 55 28 65 37 10 9 23 17 30 18 26 5 84 34 97 48 7 9 18 16 25 16 17 0
58 22 78 41 8 9 40 23 70 33 31 10 61 24 68 32 6 8 19 14 29 14 10 0 23 7 30
15 14 17 91 55 111 55 7 0 20 6 28 14 9 8 54 33 101 56 47 23 92 46 100 51 8
4 50 26 94 49 43 22 88 47 99 55 12 8 27 15 33 15 7 0 41 18 75 40 35 22 71
43 79 46 8 3 23 10 32 15 10 5 24 9 32 9 7 0 19 7 26 15 7 8 20 15 30 15 10 0
23 7 30 15 7 8 16 13 20 10 4 -3 13 1 19 9 6 7 31 19 55 26 45 12 86 42 86 62
0 6 11 8 25 6 14 -3 30 1 36 8 6 8 20 14 30 14 11 0 19 4 19 10 0 5 12 13 28
16 30 8 148 68 172 88 18 15 124 66 138 66 6 0 12 7 16 15 3 8 12 15 20 15 15
0 125 55 140 71 6 5 18 9 28 9 9 0 22 9 28 19 5 11 23 22 40 26 16 3 52 17 80
31 27 13 56 24 64 24 7 0 18 6 24 13 6 7 33 24 61 37 28 14 51 28 51 33 0 4 8
7 18 7 10 0 25 9 35 20 9 11 25 20 35 20 10 0 31 13 46 29 15 16 41 32 57 35
33 6 119 62 119 76 0 6 5 10 12 10 25 0 79 47 98 85 17 36 19 62 19 275 0 480
0 768 3 875 1 61 2 334 3 609 l0 498 -23 19 c-13 9 -37 21 -55 24 -18 4 -78
29 -134 56 -57 27 -118 52 -135 56 -18 3 -54 19 -80 35 -26 16 -53 26 -59 23
-6 -4 -17 2 -25 13 -7 11 -30 23 -51 27 -21 4 -42 10 -48 14 -5 5 -46 21 -90
36 -44 16 -89 35 -100 44 -37 30 -63 40 -117 47 -35 5 -58 14 -67 26 -9 14
-20 18 -36 14 -17 -4 -24 -1 -28 15 -5 17 -11 20 -30 15 -19 -4 -26 -1 -30 14
-4 14 -14 20 -32 20 -34 0 -105 21 -105 30 0 9 -44 26 -87 35 -18 4 -33 13
-33 20 0 7 -13 18 -29 23 -31 11 -54 50 -66 110 -4 18 -15 38 -26 45 -10 6
-19 18 -19 26 0 13 -107 121 -120 121 -4 0 -19 9 -34 21 -14 11 -54 27 -88 36
-35 9 -75 22 -89 29 -14 7 -35 11 -46 8 -12 -3 -24 -1 -27 5 -10 16 -89 13
-112 -4 -10 -8 -30 -15 -43 -15 -13 0 -40 -10 -61 -21 -35 -20 -43 -21 -92
-10 -29 6 -71 16 -94 21 -22 5 -57 19 -78 31 -20 11 -45 19 -55 16 -11 -2 -23
3 -30 14 -6 11 -21 19 -32 19 -39 0 -99 23 -99 38 0 10 -7 12 -27 8 -16 -5
-29 -3 -33 5 -7 10 -35 22 -164 68 -28 10 -52 23 -54 29 -2 7 -10 12 -19 12
-8 0 -21 7 -29 15 -9 8 -29 15 -45 15 -16 0 -29 4 -29 9 0 5 -12 13 -27 18
-60 22 -100 33 -116 33 -9 0 -17 5 -17 10 0 6 -6 10 -13 10 -8 0 -38 13 -68
30 -30 16 -66 30 -81 30 -15 0 -29 4 -32 9 -3 5 -18 12 -33 16 -26 6 -131 52
-185 81 -14 8 -33 14 -42 14 -9 0 -51 16 -94 36 -42 19 -90 42 -107 49 -16 8
-39 15 -50 17 -14 2 -21 15 -27 48 -5 25 -16 74 -24 110 -9 36 -20 119 -24
185 -9 125 -29 216 -48 223 -7 2 -12 12 -12 21 0 10 -9 26 -20 36 -11 10 -20
26 -20 36 0 10 -13 26 -29 35 -16 10 -34 27 -40 40 -11 24 -117 80 -173 90
-18 4 -39 11 -45 17 -7 5 -24 6 -37 3 -14 -3 -35 -2 -48 3 -16 6 -32 5 -48 -4
-14 -7 -28 -11 -32 -9 -20 13 -114 -35 -165 -83 -30 -29 -57 -53 -59 -53 -2 0
-4 8 -5 18 -1 30 -35 77 -58 80 -13 2 -26 14 -32 30 -12 32 -73 92 -93 92 -8
0 -26 10 -40 23 -70 63 -90 77 -115 77 -15 0 -36 7 -49 15 -12 9 -27 15 -34
13 -7 -1 -28 6 -47 16 -18 10 -43 15 -54 12 -12 -3 -29 2 -39 11 -13 12 -42
17 -103 19 -46 1 -89 5 -95 9 -5 3 -15 3 -21 -1 -6 -4 -34 -8 -63 -10 -28 -2
-63 -9 -78 -15 -15 -6 -34 -9 -43 -6 -8 4 -27 0 -42 -8 -15 -8 -34 -15 -40
-15 -7 0 -13 -4 -13 -10 0 -5 -9 -10 -20 -10 -24 0 -55 -17 -91 -48 -24 -22
-28 -22 -43 -7 -9 9 -21 25 -26 36 -6 10 -17 19 -25 19 -8 0 -15 6 -15 14 0 8
-13 19 -29 24 -16 6 -32 19 -35 29 -3 11 -25 33 -47 49 -23 16 -53 39 -66 52
-13 12 -28 22 -32 22 -4 0 -16 9 -25 19 -10 11 -31 23 -47 26 -15 4 -31 15
-34 25 -4 12 -20 21 -45 25 -24 4 -40 12 -40 20 0 8 -23 25 -51 40 -28 14 -63
34 -76 45 -14 11 -33 20 -42 20 -9 0 -27 9 -41 20 -14 11 -32 20 -41 20 -22 0
-82 31 -92 47 -4 7 -18 13 -30 13 -12 1 -40 8 -62 16 -53 20 -116 37 -137 36
-10 0 -20 3 -23 9 -4 5 -20 9 -36 9 -17 0 -40 5 -52 12 -28 15 -40 17 -165 21
-56 2 -105 0 -108 -4z m243 -74 c18 -4 30 -11 27 -16 -3 -5 1 -6 9 -3 8 3 43
-5 78 -16 35 -12 71 -24 79 -26 78 -19 251 -90 262 -108 5 -6 8 -7 8 -1 0 6 3
5 8 -1 7 -11 115 -64 131 -64 4 0 16 -9 26 -20 10 -11 26 -20 35 -20 9 0 27
-11 39 -24 13 -13 38 -27 56 -30 21 -4 36 -14 40 -26 3 -10 16 -20 28 -22 12
-2 26 -13 32 -25 5 -13 22 -27 38 -33 18 -6 26 -14 21 -21 -4 -7 -3 -9 3 -6 6
4 33 -11 59 -33 27 -22 54 -40 62 -40 7 0 31 -17 55 -39 23 -21 54 -41 70 -45
15 -3 27 -11 27 -16 0 -14 47 -2 85 22 45 27 68 36 110 42 21 4 44 11 50 16
11 9 100 19 195 21 115 3 268 -24 316 -56 13 -8 30 -15 38 -15 30 0 135 -61
180 -105 26 -25 49 -45 53 -45 13 0 88 -78 91 -95 2 -11 12 -25 22 -32 9 -7
27 -35 39 -63 12 -27 25 -50 30 -50 5 0 12 -16 15 -35 5 -25 15 -39 32 -47 13
-6 24 -18 25 -27 1 -31 8 -77 18 -130 11 -59 16 -330 6 -401 -3 -25 -6 -58 -6
-75 0 -33 -24 -123 -45 -172 -8 -17 -14 -38 -14 -46 0 -8 -7 -20 -15 -27 -9
-7 -15 -20 -13 -29 1 -9 -8 -38 -21 -66 -13 -27 -24 -56 -25 -63 -1 -8 -7 -17
-12 -20 -5 -4 -28 -38 -51 -77 -23 -38 -50 -77 -60 -87 -10 -9 -29 -33 -43
-54 -14 -20 -53 -66 -87 -101 -65 -67 -70 -77 -52 -103 8 -11 12 -12 16 -2 2
6 11 12 18 12 8 0 18 6 22 14 16 27 69 92 116 141 27 27 55 64 64 80 9 17 33
51 54 76 22 26 39 56 39 67 0 11 11 34 25 50 14 17 25 37 25 45 0 9 5 19 11
23 31 19 85 183 109 328 7 44 19 71 51 112 23 30 48 54 55 54 8 0 13 3 12 8
-6 28 39 117 69 135 8 5 13 29 13 63 0 53 1 55 31 61 17 3 35 13 41 22 7 12
21 15 49 13 83 -8 121 61 58 107 -16 12 -42 24 -57 25 -21 2 -29 10 -37 34 -5
18 -14 32 -19 32 -14 0 -56 41 -56 56 0 6 15 15 34 18 32 6 34 9 40 58 7 47 5
54 -16 70 -26 21 -70 18 -94 -7 -19 -19 -34 -11 -29 15 2 13 -2 20 -11 20 -8
0 -14 9 -14 21 0 20 4 21 87 16 75 -5 92 -10 127 -35 23 -16 40 -35 38 -41 -1
-7 1 -10 6 -7 7 4 53 -36 94 -84 10 -11 15 -26 12 -35 -4 -11 -2 -13 9 -10 10
4 16 -3 20 -24 4 -17 6 -34 6 -37 0 -4 5 -10 11 -14 18 -11 30 -77 31 -167 0
-46 4 -83 8 -83 4 0 8 -13 9 -29 0 -16 5 -46 11 -67 16 -61 15 -492 -1 -520
-3 -5 -9 -25 -13 -44 -4 -19 -12 -43 -18 -55 -20 -40 -24 -51 -37 -102 -8 -29
-10 -56 -6 -60 12 -12 66 55 66 82 0 34 31 50 46 24 8 -17 24 -21 89 -25 44
-2 88 -10 100 -18 26 -17 125 -46 157 -46 14 0 33 -9 43 -20 12 -13 25 -18 40
-14 13 3 49 -5 86 -20 34 -14 66 -23 71 -20 4 3 34 -8 65 -25 31 -17 65 -31
75 -31 18 0 119 -32 173 -55 106 -46 154 -45 209 2 13 11 37 24 54 28 17 3 36
13 42 20 7 8 28 17 49 21 20 3 45 12 56 19 46 28 215 42 304 25 120 -23 115
-17 71 -88 -17 -27 -30 -57 -30 -66 0 -9 -7 -27 -15 -39 -16 -24 -32 -227 -18
-227 5 0 9 -17 10 -38 1 -21 13 -72 27 -113 14 -41 28 -95 32 -119 4 -25 18
-62 31 -82 12 -21 23 -42 23 -47 0 -6 6 -14 13 -18 7 -4 20 -33 30 -64 10 -31
24 -62 32 -69 8 -7 15 -17 15 -22 0 -6 20 -39 45 -75 25 -35 45 -67 45 -71 0
-4 18 -29 40 -56 22 -26 40 -52 40 -56 0 -4 28 -34 61 -66 34 -33 69 -67 78
-76 8 -10 18 -18 22 -18 4 0 29 -20 55 -45 27 -24 67 -53 89 -64 51 -24 165
-61 196 -62 23 -1 23 -1 -3 -12 -16 -6 -28 -16 -28 -23 0 -13 -63 -54 -84 -54
-8 0 -19 -7 -26 -15 -7 -8 -20 -15 -30 -15 -10 0 -23 -6 -29 -14 -7 -8 -38
-26 -69 -41 -92 -43 -156 -77 -172 -91 -8 -7 -40 -22 -70 -34 -30 -12 -62 -28
-70 -35 -8 -7 -53 -32 -100 -55 -47 -23 -96 -48 -110 -56 -14 -8 -51 -28 -82
-44 -31 -16 -59 -34 -63 -40 -3 -5 -14 -10 -24 -10 -9 0 -44 -16 -77 -36 -32
-20 -93 -51 -135 -69 -42 -18 -94 -44 -115 -57 -67 -43 -134 -78 -147 -78 -8
0 -13 19 -14 52 -1 34 -7 56 -17 63 -9 7 -13 15 -10 18 5 5 -8 39 -39 106 -7
13 -22 33 -34 45 -13 11 -23 29 -23 39 0 11 -9 21 -20 24 -11 3 -20 11 -20 18
0 8 -8 16 -19 20 -10 3 -27 17 -37 32 -11 14 -30 35 -43 47 -13 12 -35 33 -49
49 -14 15 -31 27 -38 27 -7 0 -18 9 -24 20 -6 11 -18 20 -26 20 -9 0 -29 12
-44 28 -16 15 -45 41 -65 57 -72 60 -165 160 -165 179 0 11 -8 38 -19 60 -10
23 -24 56 -31 74 -18 45 -140 169 -176 178 -16 4 -33 10 -39 14 -46 31 -216
53 -231 29 -2 -5 -18 -6 -33 -3 -16 4 -32 1 -35 -5 -4 -6 -17 -11 -29 -11 -13
0 -40 -9 -62 -20 -22 -11 -45 -20 -52 -20 -7 0 -13 -5 -13 -11 0 -5 -4 -8 -9
-5 -13 8 -141 -122 -141 -143 0 -10 -14 -33 -32 -50 -17 -16 -32 -43 -34 -58
-2 -15 -8 -50 -14 -78 -12 -52 -7 -276 7 -298 4 -7 8 -29 8 -51 1 -21 8 -43
16 -50 8 -6 13 -19 11 -29 -2 -9 4 -20 12 -23 9 -3 16 -17 16 -31 0 -28 26
-83 40 -83 6 0 10 -11 10 -25 0 -15 11 -35 26 -47 14 -13 35 -39 46 -58 23
-40 225 -240 242 -240 7 0 23 -13 36 -28 14 -15 40 -34 57 -41 18 -7 45 -24
60 -37 16 -13 38 -24 51 -24 12 0 22 -4 22 -10 0 -5 9 -10 21 -10 11 0 18 -4
15 -9 -4 -5 8 -12 26 -16 71 -14 182 -51 185 -62 2 -5 -20 -19 -49 -32 -29
-13 -73 -36 -97 -51 -23 -16 -66 -37 -95 -46 -28 -9 -55 -20 -61 -24 -17 -12
-149 -54 -160 -51 -5 2 -21 4 -35 5 -14 2 -41 8 -60 14 -19 6 -67 15 -105 20
-48 7 -83 18 -109 36 -21 14 -44 26 -50 26 -6 0 -32 11 -58 25 -26 14 -56 25
-67 25 -25 0 -71 20 -71 32 0 4 -10 8 -22 8 -12 0 -42 13 -67 29 -25 16 -77
37 -116 47 -38 10 -77 23 -85 30 -18 14 -181 84 -196 84 -6 0 -37 14 -69 30
-32 17 -68 30 -80 30 -12 0 -30 9 -39 19 -9 10 -29 21 -44 24 -28 5 -125 42
-152 59 -38 23 -100 48 -145 60 -28 7 -52 15 -55 18 -10 10 -81 40 -96 40 -8
0 -17 6 -20 14 -5 14 -54 31 -116 41 -21 3 -41 13 -46 21 -5 9 -28 18 -51 21
-26 4 -45 13 -52 24 -5 11 -20 19 -32 19 -12 0 -49 14 -81 30 -32 17 -69 30
-82 30 -12 0 -25 4 -28 9 -9 14 -86 52 -95 46 -5 -2 -45 13 -90 35 -45 22 -88
40 -96 40 -7 0 -17 5 -20 10 -3 6 -16 10 -28 10 -13 0 -30 9 -40 20 -9 11 -29
20 -44 20 -16 0 -46 11 -68 25 -22 13 -49 25 -59 25 -11 0 -28 7 -38 17 -21
18 -174 74 -182 65 -3 -3 -14 1 -23 9 -17 14 -52 34 -111 65 -15 8 -37 14 -49
14 -12 0 -28 7 -36 15 -8 8 -17 11 -20 8 -5 -5 -69 21 -119 48 -10 5 -22 9
-28 9 -6 0 -20 9 -32 19 -11 11 -27 17 -35 14 -8 -3 -18 -1 -22 5 -4 6 -22 13
-40 14 -18 1 -35 8 -38 14 -2 7 -16 15 -29 18 -14 4 -23 10 -20 14 2 4 -3 8
-12 9 -20 1 -74 19 -118 40 -17 8 -37 15 -45 17 -8 1 -25 8 -39 16 -14 7 -26
13 -27 12 -23 -15 -47 44 -57 140 -7 62 60 238 90 238 10 0 14 3 11 7 -12 12
56 53 77 47 14 -3 17 -2 8 4 -17 12 108 62 156 62 96 -1 243 -81 294 -162 10
-14 28 -30 40 -33 27 -8 129 -105 123 -116 -3 -4 1 -7 8 -6 38 1 55 -5 60 -22
2 -10 17 -21 33 -25 16 -4 52 -23 81 -42 28 -19 61 -34 72 -34 12 0 21 -4 21
-10 0 -5 16 -16 35 -24 19 -8 35 -20 35 -26 0 -6 4 -9 9 -5 12 7 61 -15 61
-27 0 -5 4 -7 10 -3 5 3 39 -1 75 -10 74 -17 205 -20 205 -5 0 11 -26 18 -99
24 -65 6 -86 21 -47 36 15 5 32 10 37 10 5 0 12 6 15 14 3 7 33 21 67 31 34
10 71 27 83 37 11 10 24 18 29 18 4 0 27 16 51 35 23 19 52 35 63 35 11 0 25
8 30 18 5 10 28 27 50 37 23 10 41 24 41 31 0 8 6 11 15 8 8 -4 15 -1 15 4 0
6 10 14 22 18 30 9 118 74 118 86 0 6 6 8 13 5 8 -3 30 9 50 26 19 18 54 45
76 61 23 17 41 36 41 43 0 20 -61 15 -90 -7 -14 -11 -30 -20 -35 -20 -6 0 -23
-12 -38 -26 -15 -14 -51 -36 -80 -50 -57 -27 -94 -52 -147 -102 -19 -18 -54
-38 -78 -44 -26 -6 -49 -20 -59 -34 -8 -13 -23 -24 -33 -24 -10 0 -23 -7 -30
-15 -7 -8 -19 -15 -26 -15 -8 0 -14 -4 -14 -10 0 -5 -11 -10 -25 -10 -14 0
-37 -14 -58 -35 -19 -19 -40 -35 -48 -36 -8 0 -39 -13 -69 -29 -99 -52 -94
-52 -155 -25 -31 14 -60 25 -66 25 -5 0 -33 16 -62 35 -28 19 -57 35 -64 35
-7 0 -16 6 -20 13 -4 7 -28 23 -53 35 -25 12 -65 40 -90 62 -24 22 -49 40 -55
40 -6 0 -62 50 -124 110 -62 61 -121 110 -131 110 -10 0 -21 4 -24 8 -11 19
-117 35 -188 29 -98 -8 -158 -30 -235 -88 -35 -27 -70 -49 -78 -49 -7 0 -24
21 -37 47 -13 25 -30 48 -38 51 -16 4 -70 107 -70 133 0 9 -3 18 -6 22 -9 9
-53 137 -47 137 3 0 1 6 -5 13 -6 7 -11 22 -11 32 1 11 0 63 -1 116 -1 56 2
105 9 117 6 11 11 33 11 49 0 15 12 51 25 78 14 28 25 56 25 63 0 42 114 219
178 275 17 16 32 34 32 40 0 6 12 23 26 38 l27 28 -37 75 c-21 42 -43 76 -51
76 -14 0 -18 6 -68 104 -16 30 -40 67 -53 81 -13 14 -24 32 -24 40 0 16 -40
95 -57 113 -7 7 -13 18 -13 23 0 16 -4 24 -19 41 -9 9 -23 32 -32 50 -41 81
-69 146 -69 156 0 6 -8 17 -17 24 -29 21 -54 80 -55 128 -1 25 -5 50 -9 55
-15 21 -40 137 -33 158 27 85 100 121 192 97 26 -7 51 -15 57 -18 5 -3 20 -7
33 -8 13 -2 29 -7 35 -13 7 -5 29 -12 49 -16 21 -4 42 -13 49 -21 6 -8 19 -14
28 -15 9 0 39 -13 66 -29 28 -16 66 -37 85 -47 19 -9 37 -19 40 -22 9 -11 72
-41 83 -41 7 0 30 -16 51 -35 21 -19 43 -32 47 -29 5 3 9 1 9 -5 0 -6 24 -21
54 -35 29 -13 56 -31 59 -40 3 -8 28 -26 55 -40 27 -14 56 -36 66 -50 9 -14
21 -26 27 -26 5 0 25 -16 45 -35 19 -19 41 -35 49 -35 8 0 15 -7 15 -15 0 -8
7 -15 15 -15 8 0 15 -3 15 -8 0 -4 9 -13 19 -19 16 -10 30 -6 85 23 39 21 64
40 60 46 -4 6 -3 8 3 5 6 -4 30 12 54 34 24 22 60 50 79 62 51 32 197 155 204
173 9 24 7 31 -11 38 -9 4 -25 -1 -37 -12 -26 -22 -77 -55 -80 -50 -1 2 -7 14
-14 28 -7 14 -32 52 -57 85 -24 33 -53 74 -64 90 -11 17 -28 39 -39 50 -11 11
-27 34 -36 51 -8 18 -28 42 -43 55 -16 13 -39 42 -53 64 -13 22 -27 42 -30 45
-4 3 -19 23 -33 45 -15 22 -32 40 -39 40 -6 0 -13 11 -15 25 -4 24 -49 110
-59 110 -3 0 -2 -5 2 -12 5 -7 3 -8 -5 -4 -7 5 -10 15 -7 23 3 8 1 11 -4 8 -5
-3 -16 10 -24 30 -8 19 -20 35 -25 35 -6 0 -11 6 -11 13 0 7 -15 29 -32 48
-20 22 -32 44 -30 56 2 12 -5 27 -17 35 -13 10 -17 18 -11 28 5 8 5 19 1 25
-5 5 -12 24 -15 40 -5 25 -2 35 19 53 14 13 31 20 37 16 7 -5 8 -3 3 5 -6 10
17 12 106 8 63 -3 129 -8 146 -12z m2603 -805 c0 -5 15 -33 34 -62 18 -29 34
-57 34 -62 0 -5 5 -12 12 -16 6 -4 13 -24 16 -46 3 -21 9 -40 14 -42 16 -6 11
-20 -16 -47 -18 -18 -33 -25 -47 -21 -39 10 -93 -33 -83 -66 3 -7 7 -25 10
-39 5 -24 9 -26 58 -25 42 1 56 -3 68 -19 21 -28 20 -51 -1 -71 -10 -9 -21
-30 -25 -48 -4 -17 -17 -44 -30 -59 -13 -16 -24 -35 -24 -43 0 -20 -30 -65
-40 -59 -4 2 -8 46 -8 97 0 51 -6 113 -12 137 -6 24 -9 50 -6 57 8 21 -50 209
-74 242 -12 17 -24 44 -26 60 -3 25 4 37 40 69 78 69 106 86 106 63z m710
-871 c47 -17 97 -33 113 -36 15 -3 27 -9 27 -14 0 -13 92 -52 200 -84 25 -8
78 -30 118 -49 40 -20 78 -36 85 -36 6 0 44 -16 82 -36 39 -20 104 -48 145
-64 41 -15 93 -36 115 -46 22 -10 45 -17 52 -15 7 1 29 -9 50 -22 21 -13 52
-26 68 -30 43 -8 165 -65 165 -77 0 -6 12 -10 27 -10 37 0 25 -8 -23 -15 -94
-15 -181 -48 -241 -93 -18 -13 -37 -21 -43 -17 -6 4 -17 2 -24 -4 -10 -8 -22
-8 -40 -1 -15 5 -38 10 -52 10 -13 0 -24 5 -24 10 0 6 -7 10 -15 10 -8 0 -30
9 -50 20 -20 11 -46 20 -59 20 -14 0 -26 5 -28 10 -2 6 -21 12 -43 14 -22 1
-81 19 -131 40 -55 21 -99 33 -109 29 -11 -4 -22 0 -29 9 -11 16 -103 39 -166
42 -19 1 -39 4 -45 7 -5 4 -39 10 -75 13 -36 4 -70 12 -77 17 -6 6 -22 11 -35
13 -35 4 -78 17 -78 25 1 17 29 158 34 172 9 20 14 75 15 157 1 34 2 62 4 62
1 0 40 -14 87 -31z m1942 -565 c32 -3 55 -10 52 -15 -3 -5 5 -9 18 -9 38 0 68
-12 61 -23 -3 -6 -1 -7 6 -3 6 4 27 -6 48 -23 21 -17 41 -31 46 -31 22 0 66
-43 72 -70 4 -17 10 -30 13 -30 9 0 35 -57 39 -84 2 -11 10 -27 17 -35 7 -9
17 -38 21 -66 4 -30 20 -69 41 -101 19 -28 34 -56 34 -62 0 -6 3 -12 8 -14 9
-4 92 -124 92 -134 0 -3 11 -15 25 -26 14 -11 25 -28 25 -38 0 -11 6 -23 13
-27 16 -9 67 -108 67 -129 0 -8 4 -14 8 -14 25 0 57 -369 34 -384 -6 -4 -9
-13 -6 -20 8 -20 -36 -96 -73 -129 -17 -15 -35 -37 -38 -48 -4 -10 -15 -19
-25 -19 -10 0 -22 -4 -25 -10 -3 -5 -14 -10 -23 -10 -9 0 -28 -9 -42 -20 -14
-11 -29 -20 -35 -20 -5 0 1 7 13 16 12 8 22 21 22 29 0 18 -37 39 -42 25 -4
-14 -155 24 -187 48 -14 10 -41 24 -59 31 -18 8 -36 19 -40 25 -4 7 -35 34
-69 60 -35 27 -63 53 -63 58 0 4 -12 18 -26 31 -30 25 -65 77 -104 153 -14 27
-31 49 -38 46 -6 -2 -14 9 -18 25 -4 15 -15 37 -24 48 -10 11 -25 38 -35 60
-9 22 -25 50 -37 62 -11 12 -18 29 -15 37 4 9 2 16 -3 16 -6 0 -10 4 -10 9 0
5 -10 31 -22 58 -12 26 -23 53 -23 58 -1 6 -5 17 -8 25 -4 8 -11 33 -16 55 -6
22 -20 74 -31 115 -18 62 -21 95 -18 195 3 105 6 125 26 152 12 17 22 35 22
40 1 15 50 44 63 37 7 -5 7 -1 -2 10 -12 15 -12 19 0 30 23 21 165 57 199 50
8 -1 41 -6 72 -10z m553 -454 c21 -17 217 -100 236 -100 6 0 40 -14 75 -31 35
-16 68 -28 73 -24 6 3 21 -5 34 -19 13 -13 42 -27 65 -31 23 -4 61 -16 84 -27
23 -11 49 -21 57 -23 8 -1 17 -7 19 -13 2 -7 16 -12 31 -12 15 0 36 -9 46 -20
10 -11 27 -20 38 -20 10 0 55 -16 100 -35 44 -19 89 -35 99 -35 10 0 18 -4 18
-10 0 -5 30 -18 68 -29 37 -11 76 -27 87 -35 11 -8 30 -12 43 -9 59 14 -10
-42 -83 -68 -22 -7 -56 -26 -75 -41 -41 -32 -108 -68 -127 -68 -12 0 -34 -9
-73 -32 -57 -32 -62 -33 -77 -13 -42 58 -57 75 -73 80 -9 3 -22 15 -27 28 -10
20 -120 87 -145 87 -5 0 -21 9 -35 20 -14 11 -33 20 -42 20 -9 0 -40 12 -69
28 -29 15 -86 44 -127 66 -41 21 -75 44 -75 51 0 7 -6 15 -14 18 -8 3 -26 29
-40 57 -14 28 -46 79 -71 113 -25 34 -57 82 -72 105 l-25 44 28 -3 c16 -2 38
-10 49 -19z m-6914 -38 c-6 -11 -9 -34 -7 -53 3 -35 6 -52 32 -156 l16 -62
-57 -56 c-57 -55 -69 -61 -188 -86 -78 -17 -217 -111 -232 -156 -8 -23 -14
-30 -24 -23 -8 4 -20 6 -27 3 -7 -3 -38 9 -67 26 -30 17 -101 47 -158 66 -56
19 -109 40 -116 48 -17 17 -7 44 19 53 12 3 56 28 98 55 42 27 83 49 89 49 7
0 56 24 110 54 53 29 139 75 191 100 52 26 102 51 110 56 31 18 84 40 96 40 8
0 19 9 26 20 7 11 23 20 35 20 12 0 25 5 28 10 3 6 13 10 21 10 11 0 12 -4 5
-18z m88 -369 c17 -25 31 -54 31 -64 0 -10 9 -21 20 -24 12 -4 28 -24 36 -45
9 -22 24 -42 34 -45 28 -9 43 -96 19 -111 -12 -7 -7 -166 6 -214 4 -15 3 -20
-2 -13 -9 13 -50 30 -89 37 -15 3 -34 12 -44 21 -9 8 -31 15 -49 15 -21 0 -44
9 -63 25 -16 14 -38 25 -49 25 -11 0 -30 6 -42 14 -12 8 -38 17 -58 20 -20 4
-44 15 -53 25 -10 11 -34 22 -54 26 -20 4 -44 13 -53 21 -9 9 -30 19 -45 23
-22 5 -30 14 -32 35 -2 16 0 26 5 23 4 -3 19 10 33 28 28 38 100 68 141 59 15
-4 19 -2 12 3 -8 6 9 15 50 28 34 10 67 18 73 17 6 -1 17 5 24 13 7 8 18 15
24 16 6 0 29 20 51 44 22 25 41 45 42 45 0 0 15 -21 32 -47z m7131 -78 c9 -8
24 -15 33 -15 9 0 20 -6 24 -14 11 -18 47 -36 73 -36 29 0 80 -31 80 -48 0 -7
4 -11 8 -8 5 3 16 -4 25 -15 10 -11 31 -22 47 -26 21 -4 36 -17 52 -44 12 -21
30 -42 41 -45 26 -8 8 -24 -30 -27 -17 -1 -31 -6 -30 -12 1 -5 -8 -11 -20 -13
-13 -2 -23 -10 -23 -18 0 -8 -9 -14 -21 -14 -25 0 -225 -95 -254 -121 -18 -15
-46 -24 -67 -20 -8 1 39 131 53 146 14 15 11 53 -8 75 -16 18 -21 53 -26 160
-1 25 -8 50 -17 56 -8 7 -15 24 -16 39 -1 25 1 26 29 21 17 -4 38 -13 47 -21z
m944 -57 c-6 -10 -17 -291 -14 -355 0 -7 1 -21 1 -30 1 -18 1 -165 -1 -308 0
-44 0 -84 0 -90 5 -367 10 -743 9 -850 0 -77 0 -223 1 -324 l1 -183 -33 -49
c-18 -27 -36 -49 -41 -49 -11 0 -91 -53 -95 -63 -6 -12 -140 -77 -160 -77 -10
0 -27 -8 -38 -18 -10 -10 -41 -26 -67 -36 -27 -10 -51 -24 -54 -32 -3 -8 -18
-14 -33 -14 -15 0 -45 -12 -66 -27 -21 -14 -95 -55 -164 -90 -69 -36 -132 -71
-140 -79 -9 -7 -36 -21 -60 -29 -25 -9 -48 -22 -53 -30 -4 -8 -17 -15 -27 -15
-10 0 -22 -4 -25 -10 -3 -6 -13 -10 -22 -10 -9 0 -26 -11 -39 -25 -14 -15 -34
-25 -52 -25 -15 0 -32 -4 -37 -9 -6 -5 -30 -20 -55 -34 -25 -13 -76 -42 -115
-64 -38 -22 -128 -70 -200 -107 -71 -37 -132 -71 -135 -75 -3 -5 -30 -19 -60
-32 -30 -12 -81 -40 -112 -61 -31 -21 -61 -38 -67 -38 -17 0 -213 -99 -247
-125 -18 -14 -37 -25 -42 -25 -13 0 -302 -147 -321 -164 -18 -15 -104 -56
-119 -56 -6 0 -33 -16 -62 -35 -29 -19 -56 -35 -62 -35 -5 0 -22 -8 -36 -18
-15 -10 -45 -26 -67 -35 -22 -8 -60 -27 -85 -41 -64 -37 -147 -76 -159 -76 -6
0 -11 -4 -11 -9 0 -5 -10 -13 -22 -16 -13 -4 -44 -20 -69 -36 -25 -16 -53 -29
-61 -29 -8 0 -33 -13 -54 -28 -21 -15 -88 -52 -149 -82 -60 -30 -123 -64 -138
-77 -16 -13 -41 -26 -55 -30 -28 -6 -154 -61 -205 -88 -38 -20 -67 -19 -68 3
-1 9 -1 215 0 457 2 580 2 1311 -2 1559 l-2 199 30 10 c47 15 133 56 140 67 3
6 15 10 26 10 11 0 86 34 168 75 81 41 150 75 153 75 3 0 48 25 101 55 52 30
102 55 110 55 8 0 20 7 27 15 7 8 18 15 25 15 7 0 18 6 24 14 7 8 42 26 78 41
36 14 86 40 111 57 25 17 68 40 96 50 74 27 96 40 89 51 -3 6 -1 7 5 3 10 -6
50 10 62 25 3 4 49 28 103 53 54 26 106 54 116 63 20 17 148 73 167 73 6 0 18
7 25 17 8 9 70 43 138 77 161 80 204 102 216 113 6 5 32 17 58 26 27 9 65 29
85 45 20 16 55 35 77 42 22 7 47 18 55 25 8 7 31 20 50 28 19 9 46 22 60 30
14 8 36 20 50 26 14 6 52 26 85 46 71 41 100 54 138 62 15 3 27 9 27 13 0 4
25 20 55 35 30 16 62 36 71 46 9 10 33 22 53 25 20 4 43 12 51 19 8 7 33 22
55 32 22 11 54 27 70 36 17 9 45 21 64 28 18 7 45 22 60 34 14 11 64 38 110
59 46 21 105 53 132 71 26 18 60 36 75 39 14 4 54 25 88 48 33 22 95 56 136
74 41 19 89 42 105 51 17 9 50 27 75 40 24 13 49 28 54 33 15 15 49 13 40 -2z
m-8991 -18 c14 -12 32 -17 42 -14 9 4 21 0 28 -9 16 -20 107 -67 130 -67 16 0
46 -12 156 -61 24 -11 46 -18 48 -15 3 3 29 -8 57 -24 29 -17 73 -33 99 -36
26 -4 47 -10 47 -14 0 -9 135 -75 173 -84 15 -4 57 -20 93 -36 35 -17 72 -30
81 -30 9 0 27 -9 39 -21 12 -11 41 -23 65 -26 24 -4 68 -21 99 -40 30 -18 59
-33 64 -33 5 0 28 -8 50 -19 23 -10 59 -25 81 -33 22 -9 74 -30 115 -47 41
-18 107 -43 145 -56 39 -13 100 -39 136 -58 36 -18 93 -41 127 -51 33 -9 99
-36 146 -60 47 -24 109 -50 138 -56 29 -7 64 -21 77 -32 14 -10 32 -16 43 -13
10 4 18 2 18 -4 0 -15 54 -41 83 -41 14 0 30 -7 37 -15 7 -8 18 -15 26 -15 12
0 66 -21 106 -41 10 -5 25 -9 34 -9 9 0 29 -9 45 -20 15 -12 54 -30 85 -40 32
-11 73 -29 91 -40 19 -11 45 -20 57 -20 13 0 29 -7 36 -15 7 -8 21 -15 31 -15
11 0 38 -9 62 -19 148 -67 229 -101 240 -101 6 0 23 -6 37 -13 14 -7 52 -24
85 -37 33 -13 65 -27 71 -31 6 -5 69 -31 140 -58 72 -27 154 -61 183 -75 29
-15 66 -28 84 -29 18 -1 37 -7 42 -13 6 -6 35 -21 65 -33 188 -78 223 -91 237
-91 9 0 24 -6 32 -14 19 -17 243 -106 286 -113 17 -3 35 -11 40 -18 14 -17 71
-45 92 -45 34 0 91 -20 128 -46 20 -14 45 -24 55 -22 10 2 27 -5 39 -16 19
-18 34 -22 90 -25 20 -1 22 -4 16 -28 -7 -27 -17 -272 -18 -403 -1 -429 3
-993 8 -1380 3 -201 6 -369 7 -375 2 -26 -14 -90 -25 -97 -6 -4 -28 -10 -47
-13 -19 -4 -43 -10 -53 -16 -10 -5 -22 -7 -28 -3 -6 3 -41 10 -79 15 -64 8
-129 32 -263 100 -32 16 -90 40 -129 54 -39 14 -76 29 -82 34 -18 14 -178 81
-194 81 -8 0 -31 9 -51 19 -20 11 -48 22 -63 25 -15 3 -33 12 -40 19 -16 15
-118 57 -138 57 -8 0 -29 9 -46 19 -54 33 -194 91 -219 91 -14 0 -25 4 -25 9
0 5 -31 18 -68 30 -38 11 -80 29 -93 39 -32 23 -134 56 -148 48 -6 -4 -11 -1
-11 8 0 8 -16 20 -37 27 -21 6 -42 15 -48 19 -5 3 -55 23 -110 44 -123 46
-141 54 -185 76 -19 10 -58 25 -85 33 -28 8 -66 24 -85 36 -19 11 -41 21 -48
21 -7 0 -39 12 -70 26 -109 49 -123 54 -142 54 -10 0 -25 7 -33 15 -8 7 -28
17 -43 21 -16 3 -39 13 -51 20 -13 8 -64 28 -115 45 -51 17 -104 38 -118 47
-14 9 -52 26 -85 38 -61 21 -121 47 -210 89 -27 13 -75 31 -105 40 -30 10 -62
23 -70 30 -8 8 -32 16 -52 20 -21 4 -47 16 -59 26 -12 10 -38 21 -58 25 -33 5
-79 23 -156 61 -51 26 -215 83 -236 83 -11 0 -22 7 -25 15 -3 8 -16 17 -27 21
-12 4 -44 17 -70 30 -26 12 -62 26 -79 29 -17 4 -72 27 -123 51 -50 24 -114
48 -141 54 -27 6 -59 18 -71 26 -12 7 -27 14 -34 14 -6 0 -22 9 -36 20 -14 11
-64 31 -111 46 -48 15 -94 33 -103 40 -8 8 -25 14 -36 14 -11 0 -26 6 -32 14
-7 8 -35 24 -64 35 l-52 21 3 418 c4 501 5 1205 2 1622 -1 168 -1 311 -1 318
1 18 25 15 54 -8z m5160 -234 c82 -25 207 -126 207 -168 0 -7 10 -24 23 -38
12 -14 29 -44 36 -67 8 -24 17 -43 21 -43 4 0 16 -19 26 -42 10 -24 37 -62 59
-85 22 -23 45 -49 50 -58 6 -9 20 -17 32 -18 19 -1 37 -27 34 -49 0 -4 5 -5
13 -2 7 3 33 -13 57 -36 24 -23 72 -60 106 -83 36 -24 64 -51 68 -64 3 -14 13
-23 24 -23 21 0 105 -116 95 -131 -3 -5 0 -8 6 -7 17 4 76 -105 85 -155 17
-93 18 -93 -45 -126 -31 -17 -66 -32 -76 -34 -29 -4 -45 -17 -38 -29 4 -6 2
-8 -3 -5 -6 4 -64 -21 -129 -55 -201 -104 -277 -140 -283 -131 -3 4 -22 9 -41
11 -19 2 -71 21 -115 42 -44 22 -93 42 -109 46 -15 4 -63 30 -106 59 -43 29
-89 55 -104 59 -14 3 -26 13 -26 20 0 8 -4 16 -9 18 -51 18 -256 235 -256 270
0 10 -6 22 -14 27 -8 5 -10 14 -6 22 5 8 5 11 0 7 -4 -4 -15 5 -23 20 -39 71
-52 103 -47 112 3 6 2 10 -2 10 -5 0 -10 12 -11 26 -1 14 -8 40 -16 57 -35 77
-39 357 -5 357 5 0 9 10 9 23 0 13 6 29 13 36 10 11 9 12 -3 6 -8 -4 -2 4 13
18 16 14 27 28 25 31 -6 11 33 47 44 40 6 -4 8 -3 5 3 -4 5 7 23 23 38 17 16
30 25 30 21 0 -4 13 2 29 13 18 13 36 18 47 14 12 -4 15 -3 10 5 -4 7 -1 12 8
12 9 0 16 4 16 8 0 28 177 41 253 18z"/>
<path d="M3240 8115 c0 -12 43 -91 66 -122 13 -17 24 -35 24 -38 0 -4 11 -21
26 -37 14 -17 23 -37 20 -44 -3 -8 -2 -14 2 -14 4 0 15 -14 24 -30 13 -23 24
-30 47 -30 52 0 49 29 -10 98 -16 18 -29 37 -29 43 0 16 -58 99 -98 142 -31
31 -72 50 -72 32z"/>
<path d="M3472 8047 c-7 -8 -7 -29 -1 -62 5 -27 7 -56 4 -65 -4 -8 -3 -11 1
-7 4 4 20 -11 36 -33 27 -36 31 -38 55 -27 14 6 20 13 14 15 -6 2 -11 15 -11
28 0 22 -17 62 -49 114 -5 8 -12 23 -15 33 -6 20 -19 22 -34 4z"/>
<path d="M3640 8041 c-10 -20 15 -161 29 -161 4 0 14 6 23 13 14 10 15 22 7
76 -12 85 -36 114 -59 72z"/>
<path d="M3295 7949 c-4 -6 -5 -12 -2 -15 2 -3 7 2 10 11 7 17 1 20 -8 4z"/>
<path d="M4343 7909 c-15 -15 -5 -39 17 -39 10 0 20 -9 23 -20 3 -13 14 -20
29 -20 13 0 29 -9 35 -19 7 -11 35 -32 63 -47 27 -15 50 -33 50 -40 0 -7 15
-23 33 -35 17 -13 38 -29 45 -36 7 -7 18 -13 23 -13 5 0 9 -7 9 -16 0 -9 14
-33 30 -53 47 -55 50 -60 50 -67 0 -4 6 -15 14 -23 21 -25 67 -164 70 -215 3
-43 -7 -108 -25 -151 -4 -11 -10 -29 -14 -41 -9 -33 -108 -130 -148 -145 -21
-7 -37 -17 -37 -21 0 -12 -168 -10 -175 2 -3 6 -21 10 -40 10 -29 0 -99 31
-115 50 -3 4 -13 9 -22 13 -25 9 -23 48 2 54 11 3 20 11 20 19 0 7 6 17 13 21
7 4 21 29 30 55 10 25 29 58 43 73 16 18 23 33 18 44 -8 21 -16 60 -8 44 3 -7
10 -13 15 -13 14 0 11 36 -4 49 -18 14 -40 -10 -57 -61 -6 -21 -15 -38 -18
-38 -4 0 -23 -34 -42 -75 -19 -41 -38 -75 -42 -75 -4 0 -14 -14 -23 -30 -15
-30 -16 -30 -45 -15 -17 9 -30 19 -30 24 0 5 -13 14 -30 20 -16 5 -30 14 -30
19 0 5 -31 42 -70 82 -38 40 -72 81 -75 90 -3 10 -17 26 -31 35 -13 9 -22 20
-19 25 4 6 1 10 -4 10 -6 0 -11 7 -11 15 0 9 -7 18 -15 21 -8 3 -17 14 -20 24
-8 25 -36 34 -53 16 -19 -19 -9 -73 23 -117 13 -19 31 -47 39 -64 9 -16 30
-39 46 -50 17 -11 42 -39 56 -62 14 -24 31 -43 39 -43 8 0 33 -21 57 -46 24
-26 57 -55 73 -65 17 -11 24 -19 18 -19 -7 0 -13 -7 -13 -15 0 -8 -4 -15 -9
-15 -4 0 -20 -12 -35 -26 -20 -21 -24 -30 -15 -41 9 -10 15 -10 25 -2 11 9 14
8 14 -5 0 -9 8 -20 18 -23 9 -4 19 -10 22 -14 9 -13 103 -59 120 -59 10 0 30
-6 45 -14 15 -8 33 -12 40 -9 7 2 42 -4 78 -15 37 -11 71 -16 78 -11 7 4 28 1
46 -6 24 -10 32 -11 26 -2 -4 7 -7 21 -8 31 0 23 -52 44 -111 45 -25 1 -47 7
-55 17 -8 9 -21 13 -35 10 -13 -4 -26 -1 -29 4 -4 6 -16 8 -27 4 -14 -4 -18
-2 -14 5 5 7 -3 11 -20 11 -31 0 -104 30 -104 42 0 4 -7 8 -17 8 -15 0 -15 1
0 18 10 10 17 24 17 31 0 7 16 3 43 -12 23 -13 65 -30 92 -37 28 -6 66 -18 86
-25 72 -27 173 -20 256 18 11 5 25 7 31 4 18 -12 162 111 162 138 0 10 12 43
27 74 25 49 28 69 30 164 1 63 -2 105 -8 102 -5 -4 -9 9 -9 27 0 19 -7 43 -15
54 -8 10 -15 27 -15 38 0 28 -59 126 -76 126 -8 0 -14 6 -14 14 0 7 -16 28
-35 47 -19 19 -35 39 -35 46 0 7 -6 16 -14 20 -7 4 -18 18 -25 31 -6 12 -19
22 -27 22 -18 0 -44 23 -44 39 0 6 -9 15 -21 21 -11 7 -29 20 -40 31 -10 10
-28 19 -39 19 -11 0 -20 4 -20 8 0 9 -58 32 -81 32 -8 0 -20 -5 -26 -11z"/>
<path d="M5928 7764 c-14 -14 -9 -92 8 -108 35 -36 54 -39 81 -14 20 19 24 30
20 66 -2 23 -7 45 -10 48 -10 10 -91 17 -99 8z"/>
<path d="M2568 7483 c-4 -19 36 -63 57 -63 7 0 27 -17 43 -37 17 -21 49 -51
71 -68 23 -16 51 -38 63 -47 24 -21 32 -22 59 -8 26 14 24 29 -6 40 -18 7 -25
17 -25 35 0 14 -5 25 -12 25 -12 0 -86 52 -124 87 -60 55 -119 72 -126 36z"/>
<path d="M2587 7303 c-4 -3 -7 -9 -7 -13 0 -8 57 -82 62 -80 2 1 16 -4 32 -10
36 -13 56 -7 56 19 0 21 -53 65 -64 54 -3 -3 -6 -2 -6 4 0 5 -11 15 -25 21
-30 14 -39 15 -48 5z"/>
<path d="M2495 7183 c-7 -20 27 -53 55 -53 10 0 22 -6 28 -13 14 -16 59 -20
68 -6 7 12 -22 42 -68 72 -35 22 -74 22 -83 0z"/>
<path d="M3208 7016 c-28 -20 -22 -34 25 -57 23 -12 55 -37 70 -55 16 -19 35
-34 43 -34 13 0 39 -45 36 -61 -1 -4 4 -6 11 -6 35 1 47 -5 47 -23 0 -10 6
-23 13 -27 6 -4 30 -43 52 -85 22 -42 47 -79 55 -81 15 -4 39 -63 47 -116 2
-14 8 -32 13 -41 15 -27 30 -179 21 -198 -5 -9 -17 -38 -26 -63 -9 -26 -27
-60 -41 -75 -13 -16 -30 -41 -37 -56 -6 -16 -17 -28 -24 -28 -6 0 -19 -10 -27
-22 -27 -37 -178 -78 -221 -59 -11 5 -40 14 -65 21 -86 22 -159 55 -163 72 -3
10 -16 22 -29 27 -12 5 -34 20 -48 33 -14 14 -33 27 -42 31 -10 3 -18 15 -18
25 0 10 -13 31 -30 45 -16 15 -30 34 -30 42 0 8 -4 15 -8 15 -4 0 -13 12 -19
28 -13 29 -20 40 -74 122 -20 30 -39 69 -42 87 -4 18 -14 49 -23 70 -10 21
-18 47 -18 58 -1 11 -8 21 -16 22 -67 12 -56 -136 16 -218 8 -9 11 -19 7 -22
-3 -4 2 -16 12 -27 10 -11 15 -23 12 -26 -8 -8 24 -64 35 -64 4 0 8 -6 8 -14
0 -8 16 -32 36 -53 19 -21 41 -49 49 -63 17 -33 147 -150 191 -173 19 -9 34
-22 34 -27 0 -6 6 -10 13 -10 8 0 24 -9 37 -20 13 -11 30 -20 39 -20 9 0 27
-8 40 -17 19 -12 45 -16 110 -16 47 1 95 3 106 6 40 11 92 36 105 52 7 9 32
27 56 41 24 14 47 37 54 54 7 17 28 43 46 60 19 16 34 33 34 37 0 4 7 22 16
38 9 17 18 55 20 85 6 69 6 59 -1 165 -5 80 -10 96 -39 140 -40 61 -100 200
-92 213 3 5 -2 9 -11 8 -9 0 -22 9 -28 21 -7 13 -14 21 -17 18 -2 -2 -15 13
-29 35 -13 22 -28 40 -33 40 -20 0 -76 46 -87 70 -7 16 -35 37 -77 58 -76 37
-71 36 -94 18z"/>
<path d="M2511 5523 c-14 -15 -14 -26 1 -58 14 -31 71 -60 95 -50 10 5 21 8
24 7 3 0 6 17 7 38 2 32 -2 42 -22 56 -31 20 -89 24 -105 7z"/>
<path d="M2341 5436 c-11 -19 -10 -28 3 -54 9 -17 21 -34 28 -38 18 -11 71 -5
80 9 11 18 10 77 -2 77 -5 0 -10 7 -10 15 0 11 -11 15 -43 15 -36 0 -46 -4
-56 -24z"/>
<path d="M2544 5362 c-24 -2 -36 -11 -50 -37 -15 -29 -16 -39 -5 -75 9 -30 9
-46 2 -53 -6 -6 -11 -26 -11 -45 0 -39 31 -71 70 -72 23 0 53 23 57 43 6 29
10 32 28 17 11 -9 16 -10 11 -2 -5 8 2 14 23 18 17 4 32 12 32 18 5 54 9 89
15 133 6 50 5 52 -19 59 -17 4 -37 -1 -56 -12 -27 -16 -32 -16 -48 -3 -10 8
-32 13 -49 11z"/>
<path d="M2285 5236 c-15 -23 -15 -27 1 -50 9 -15 27 -28 40 -31 13 -3 35 -7
48 -10 16 -3 26 0 30 11 3 8 10 13 15 10 5 -4 3 11 -6 33 -24 62 -98 83 -128
37z"/>
<path d="M5533 7839 c-7 -7 -13 -21 -13 -32 0 -10 -4 -16 -10 -12 -10 6 8 -48
26 -79 7 -12 25 -21 44 -22 26 -2 35 4 51 29 23 39 24 65 1 95 -21 27 -81 40
-99 21z"/>
<path d="M8152 6447 c-43 -46 10 -137 80 -137 28 0 47 28 48 67 0 27 -7 38
-42 63 -49 36 -58 37 -86 7z"/>
<path d="M8395 6421 c-23 -5 -31 -12 -33 -33 -3 -27 26 -103 36 -93 3 2 12 -1
20 -8 12 -9 16 -9 19 1 3 6 13 12 24 12 27 0 35 27 20 64 -7 17 -13 36 -14 43
0 7 -4 10 -9 7 -5 -3 -14 -2 -21 3 -7 5 -25 7 -42 4z"/>
<path d="M7945 6294 c-19 -19 -12 -45 23 -91 19 -26 32 -33 57 -33 35 0 65 21
65 46 0 24 -29 73 -49 84 -29 15 -77 12 -96 -6z"/>
<path d="M8205 6248 c-8 -21 -15 -45 -15 -53 0 -8 -8 -15 -19 -15 -30 0 -71
-45 -71 -79 0 -30 21 -60 43 -62 30 -3 73 4 84 12 7 7 14 6 18 -1 23 -38 129
-26 146 16 4 13 15 24 24 24 23 0 68 77 56 98 -20 37 -49 54 -86 51 -25 -3
-41 1 -48 12 -18 24 -54 40 -86 37 -25 -2 -33 -9 -46 -40z"/>
<path d="M1771 5527 c13 -23 53 -39 101 -40 56 -1 57 11 1 18 -69 10 -85 15
-80 29 3 6 -3 12 -13 12 -15 0 -16 -4 -9 -19z"/>
<path d="M2000 5429 c-12 -9 -10 -10 8 -6 19 4 21 3 12 -8 -9 -11 -6 -16 10
-25 12 -6 29 -9 38 -5 15 6 13 10 -11 31 -32 27 -36 28 -57 13z"/>
<path d="M9094 5519 c-9 -15 14 -18 32 -4 18 13 18 14 -4 12 -13 -1 -26 -5
-28 -8z"/>
<path d="M9300 5421 c0 -12 5 -21 10 -21 6 0 10 6 10 14 0 8 -4 18 -10 21 -5
3 -10 -3 -10 -14z"/>
<path d="M9282 5410 c0 -14 2 -19 5 -12 2 6 2 18 0 25 -3 6 -5 1 -5 -13z"/>
<path d="M9245 5390 c3 -5 10 -10 16 -10 5 0 9 5 9 10 0 6 -7 10 -16 10 -8 0
-12 -4 -9 -10z"/>
<path d="M9140 5330 c-22 -6 -23 -8 -7 -15 10 -4 28 -3 39 2 29 13 3 22 -32
13z"/>
<path d="M9101 3927 c-10 -18 -12 -48 -7 -108 3 -46 6 -97 6 -112 1 -20 7 -30
26 -37 45 -17 50 -12 75 71 18 61 30 84 47 92 12 6 22 16 22 22 0 7 6 18 13
24 20 16 49 -19 53 -64 4 -45 8 -52 45 -70 26 -14 32 -14 62 1 17 9 51 35 75
57 35 34 42 48 42 79 0 21 -4 38 -10 38 -25 0 -57 -25 -78 -60 -12 -22 -28
-40 -35 -40 -22 1 -52 25 -55 45 -2 11 -7 22 -12 25 -4 3 -12 15 -19 28 -9 16
-21 22 -45 22 -27 0 -44 -10 -84 -50 -48 -47 -52 -49 -62 -31 -5 11 -10 26
-10 34 0 8 -8 25 -18 37 l-18 22 -13 -25z"/>
<path d="M8898 3825 c-36 -20 -82 -118 -79 -170 3 -51 13 -62 70 -74 41 -9 54
-7 85 8 41 21 66 50 86 99 16 41 -1 104 -34 126 -35 22 -97 28 -128 11z m75
-64 c49 -19 47 -73 -3 -109 -28 -21 -31 -21 -54 -7 -32 21 -37 38 -24 77 17
48 34 57 81 39z"/>
<path d="M8550 3715 c-67 -24 -45 -44 55 -51 81 -6 88 -9 75 -33 -8 -16 -17
-19 -44 -14 -24 4 -35 1 -39 -11 -5 -11 3 -17 29 -22 44 -8 40 -21 -18 -60
-44 -30 -45 -31 -31 -58 10 -20 19 -26 31 -21 35 15 89 27 129 30 78 7 135 54
97 82 -13 10 -24 8 -55 -7 -46 -24 -49 -24 -49 -4 0 9 8 18 19 21 15 4 18 12
15 49 -2 24 -8 53 -14 64 -18 33 -143 55 -200 35z"/>
<path d="M8332 3594 c-12 -8 -22 -24 -22 -34 0 -10 -4 -22 -10 -25 -18 -11
-42 -74 -42 -112 0 -58 0 -58 33 -82 30 -23 32 -23 75 -6 24 9 48 23 52 31 7
12 12 12 40 -2 37 -18 90 -11 99 13 7 19 -16 35 -42 29 -21 -5 -45 30 -45 65
0 10 -4 20 -9 23 -5 4 -12 24 -16 45 -6 34 -12 42 -46 55 -47 19 -40 19 -67 0z
m57 -67 c23 -28 24 -71 2 -96 -12 -13 -21 -30 -21 -38 0 -17 -14 -17 -29 0 -6
8 -8 34 -4 68 8 72 26 96 52 66z"/>
<path d="M8094 3438 c-11 -13 -28 -36 -38 -51 -17 -27 -18 -28 -41 -13 -14 9
-30 16 -36 16 -18 0 -59 -49 -59 -70 0 -10 -4 -21 -9 -25 -10 -6 -17 11 -25
59 -6 35 -9 38 -30 30 -14 -5 -15 -15 -10 -58 4 -28 11 -59 16 -69 5 -9 6 -33
2 -51 -6 -37 18 -85 44 -86 16 0 37 51 51 124 16 88 28 90 39 9 7 -45 9 -48
38 -51 l32 -3 7 77 c7 76 26 124 49 124 17 0 48 -63 40 -83 -3 -10 -1 -17 6
-17 8 0 9 -10 5 -29 -5 -23 -1 -31 19 -45 14 -9 27 -16 29 -16 9 0 15 40 7 45
-5 3 -8 27 -8 53 0 26 -4 66 -11 89 -9 33 -18 43 -43 52 -43 15 -52 14 -74
-11z"/>
<path d="M7503 3243 c-7 -2 -13 -10 -13 -18 0 -7 -7 -18 -16 -26 -28 -23 -44
-68 -48 -131 -5 -74 15 -125 52 -135 39 -10 95 9 109 36 16 32 38 44 71 36 17
-3 40 1 60 10 63 32 110 125 63 125 -11 0 -21 -3 -23 -7 -6 -16 -70 -63 -84
-63 -9 0 -14 11 -14 31 0 52 -37 119 -75 135 -35 14 -60 17 -82 7z m60 -73
c17 -16 19 -24 11 -38 -6 -9 -9 -32 -6 -50 5 -38 -30 -82 -67 -82 -20 0 -22 4
-17 25 4 14 1 34 -6 44 -10 16 -9 23 5 39 9 10 17 22 17 26 0 7 32 55 38 56 2
0 13 -9 25 -20z"/>
<path d="M7347 3087 c-9 -6 -24 -43 -33 -80 -11 -44 -27 -79 -45 -98 -15 -16
-30 -29 -33 -29 -3 0 -15 18 -26 39 -10 22 -23 41 -27 43 -5 1 -16 17 -25 33
-11 19 -26 31 -43 33 -26 3 -27 2 -20 -30 4 -18 16 -42 26 -54 10 -11 19 -25
19 -31 0 -7 11 -20 23 -30 27 -21 39 -58 40 -127 0 -35 -4 -51 -16 -58 -10 -5
-17 -13 -17 -19 0 -15 -42 -102 -58 -121 -13 -16 -13 -20 3 -38 10 -11 26 -20
35 -20 18 0 50 30 50 46 0 6 10 30 22 55 11 24 21 51 21 59 0 8 8 27 18 42 11
14 19 33 19 41 0 9 4 19 10 22 5 3 19 38 30 78 11 40 29 92 40 117 19 47 25
106 12 128 -7 9 -12 9 -25 -1z"/>
<path d="M6710 2971 c-8 -16 -5 -25 14 -46 22 -24 33 -76 41 -200 4 -50 6 -56
28 -64 12 -5 27 -7 33 -4 6 2 16 52 22 111 11 97 15 108 40 129 43 36 65 27
79 -32 26 -109 31 -126 43 -140 16 -19 54 -19 70 0 12 15 5 55 -11 55 -5 0 -9
6 -9 14 0 7 -6 19 -14 25 -7 6 -16 30 -19 53 -3 24 -11 44 -16 46 -6 2 -11 9
-11 16 0 20 -34 46 -61 46 -15 0 -43 -18 -73 -47 -47 -44 -50 -45 -62 -27 -19
27 -59 69 -72 78 -6 3 -16 -2 -22 -13z"/>
<path d="M1889 3876 c-2 -3 -3 -33 -3 -68 2 -60 25 -164 56 -253 16 -44 93
-155 108 -155 6 0 10 -4 10 -8 0 -15 100 -112 115 -112 8 0 15 -4 15 -8 0 -5
19 -15 43 -22 23 -7 59 -19 79 -26 43 -16 105 -12 163 9 68 24 111 37 126 37
8 0 39 12 69 26 30 15 69 30 87 34 43 10 124 -12 184 -50 49 -32 119 -102 119
-120 0 -17 58 -95 99 -133 23 -21 49 -49 58 -63 9 -14 40 -36 69 -49 28 -13
62 -37 75 -54 12 -17 29 -31 36 -31 7 0 22 -9 34 -21 12 -12 27 -18 36 -14 9
3 19 2 22 -2 11 -15 75 -46 100 -50 79 -10 107 -17 114 -29 9 -16 73 -19 82
-4 8 13 45 13 45 0 0 -11 30 -10 190 5 36 3 72 8 80 12 8 3 20 7 25 7 24 3 55
18 55 27 0 6 9 7 23 3 12 -4 31 -6 42 -5 11 1 92 3 180 5 198 4 220 7 277 34
66 32 78 51 94 142 14 77 13 83 -7 130 -12 27 -28 55 -36 61 -8 7 -20 26 -27
44 -9 22 -31 40 -73 63 -34 18 -67 32 -75 32 -8 0 -30 8 -49 17 -45 23 -212
22 -257 -1 -17 -9 -38 -16 -46 -16 -19 0 -77 -59 -116 -118 -20 -30 -30 -58
-30 -83 0 -21 -5 -49 -11 -63 -9 -18 -9 -43 -2 -87 10 -59 9 -62 -16 -85 -20
-18 -37 -24 -73 -24 -32 0 -48 -4 -48 -12 0 -10 -2 -10 -9 0 -6 10 -31 13 -87
12 -106 -1 -207 9 -219 23 -15 17 -52 37 -68 37 -8 0 -37 13 -66 29 -29 16
-61 27 -71 24 -11 -3 -34 13 -67 46 -28 28 -57 51 -65 51 -8 0 -24 18 -36 39
-13 22 -31 43 -42 46 -11 4 -20 11 -20 16 0 5 -7 17 -15 27 -48 55 -75 91 -75
100 0 6 -9 14 -21 17 -11 4 -25 17 -31 30 -15 33 -72 69 -133 84 -87 22 -282
0 -326 -36 -8 -7 -24 -13 -35 -13 -11 0 -26 -6 -32 -12 -7 -7 -25 -14 -40 -14
-48 -3 -123 -14 -132 -19 -5 -3 -11 -1 -15 5 -3 5 -18 10 -32 10 -15 0 -40 14
-62 35 -143 136 -178 176 -191 215 -8 23 -20 44 -27 47 -7 3 -13 14 -13 25 0
11 -6 32 -14 46 -8 15 -22 56 -31 92 -25 93 -36 120 -50 120 -6 0 -14 -2 -16
-4z m2591 -649 c30 -7 72 -22 92 -35 21 -13 42 -21 48 -17 5 3 10 -1 10 -9 0
-9 9 -21 21 -28 18 -12 31 -33 59 -103 5 -11 11 -36 14 -56 9 -55 -13 -79
-138 -145 -11 -7 -73 -14 -136 -17 l-115 -6 30 22 c65 48 107 95 93 103 -28
19 -79 12 -128 -17 -8 -5 -24 -13 -35 -18 -12 -5 -27 -16 -34 -25 -7 -9 -34
-22 -60 -30 -25 -8 -54 -17 -63 -21 -15 -6 -16 -3 -7 27 6 18 14 86 19 151 7
103 11 122 31 143 12 13 29 24 36 24 8 0 16 6 19 14 5 12 47 34 94 50 26 8 93
5 150 -7z"/>
<path d="M6023 5175 c-50 -35 25 -162 87 -148 43 10 57 29 55 76 -3 79 -3 78
-30 71 -15 -4 -25 -2 -25 5 0 16 -62 13 -87 -4z"/>
<path d="M6235 5163 c-22 -33 -8 -81 34 -120 50 -46 62 -43 88 18 9 20 7 34
-8 67 -22 47 -34 57 -72 57 -18 0 -33 -8 -42 -22z"/>
<path d="M5897 5003 c-39 -6 -63 -54 -46 -94 26 -65 120 -93 127 -39 2 14 8
29 13 35 16 17 9 50 -16 78 -14 15 -31 26 -38 26 -7 -1 -24 -4 -40 -6z"/>
<path d="M6113 4967 c-13 -5 -24 -17 -24 -26 -1 -9 -2 -20 -4 -26 -1 -5 -3
-22 -3 -37 -1 -17 -9 -29 -23 -33 -30 -10 -52 -67 -38 -99 19 -40 57 -50 120
-32 29 9 63 16 77 16 29 0 82 36 82 55 0 16 35 29 52 19 7 -4 10 -4 6 1 -4 4
2 15 12 24 20 16 37 81 22 81 -5 0 -14 12 -21 26 -11 25 -15 26 -69 22 -31 -3
-68 -1 -82 5 -37 14 -82 16 -107 4z"/>
<path d="M4620 8711 c0 -40 5 -73 11 -77 7 -4 9 -23 5 -53 -4 -33 -2 -53 8
-67 8 -11 13 -33 12 -47 -2 -15 1 -30 5 -33 5 -3 9 -14 9 -24 0 -19 32 -36 50
-25 5 3 10 13 10 21 0 8 5 14 10 14 14 0 13 33 -1 47 -13 13 -19 61 -19 137 1
30 -4 53 -12 57 -9 6 -9 9 -1 9 14 0 5 41 -12 55 -7 6 -14 19 -16 30 -3 13
-14 21 -32 23 l-27 3 0 -70z"/>
<path d="M4313 8744 c-3 -8 -1 -20 6 -27 6 -6 11 -23 11 -37 0 -28 54 -188 69
-203 6 -6 7 -23 4 -38 -4 -23 -2 -29 11 -29 12 0 16 -5 12 -18 -4 -12 1 -26
14 -37 19 -17 20 -17 39 6 24 28 25 38 9 76 -6 15 -12 31 -12 35 -1 3 -4 10
-8 14 -5 4 -8 16 -8 26 0 10 -7 21 -16 25 -9 3 -13 12 -9 21 3 8 -3 25 -13 36
-11 12 -19 28 -19 38 1 26 -55 128 -70 128 -7 0 -16 -7 -20 -16z"/>
<path d="M448 6812 c-11 -2 -18 -13 -18 -27 0 -13 -8 -29 -17 -34 -15 -9 -16
-12 -4 -20 8 -5 20 -7 27 -4 9 3 11 -2 7 -16 -4 -15 -1 -21 11 -21 9 0 22 -12
29 -27 6 -16 17 -32 24 -36 7 -4 13 -15 13 -22 0 -8 6 -15 14 -15 17 0 56 -51
56 -74 0 -15 12 -21 35 -16 6 1 7 -1 3 -5 -8 -8 3 -23 45 -65 18 -19 25 -34
21 -45 -6 -14 -3 -16 16 -10 18 6 22 4 17 -8 -6 -16 21 -47 41 -47 7 0 12 -7
12 -15 0 -28 24 -65 42 -65 11 0 17 -4 13 -10 -7 -12 16 -50 31 -50 7 0 19
-15 28 -34 20 -42 20 -46 1 -46 -8 0 -15 4 -15 9 0 5 -20 12 -45 16 -31 4 -43
10 -38 18 5 8 2 8 -9 -1 -12 -10 -22 -10 -44 -1 -16 7 -41 11 -56 10 -16 -2
-35 5 -44 13 -8 9 -30 17 -47 18 -18 1 -41 3 -52 4 -11 1 -28 2 -37 3 -9 1
-23 8 -32 16 -9 9 -27 14 -43 12 -24 -3 -28 -8 -28 -36 -1 -47 21 -93 42 -90
10 2 29 -1 42 -5 16 -6 26 -4 31 5 6 9 12 10 22 2 14 -11 113 -32 182 -39 23
-2 46 -11 53 -20 8 -11 21 -15 39 -11 15 3 36 1 46 -4 10 -5 26 -13 36 -17 9
-5 40 -10 67 -11 28 -1 52 -6 53 -11 5 -13 59 -13 67 0 3 6 21 10 40 10 19 0
36 3 38 8 3 4 1 45 -3 92 -6 68 -5 87 6 93 11 6 12 13 4 28 -8 13 -7 25 0 40
9 16 8 25 -3 42 -10 15 -12 29 -6 45 6 17 5 28 -7 39 -14 14 -13 18 7 39 21
22 21 25 6 42 -21 23 -22 46 -1 67 10 9 14 24 10 37 -3 12 -1 27 5 34 6 8 2
17 -16 28 -14 9 -24 25 -23 34 6 34 -36 24 -70 -18 -18 -22 -30 -40 -25 -40
10 0 11 -53 1 -61 -4 -3 -3 -20 2 -38 10 -35 3 -91 -11 -91 -5 0 -9 -4 -9 -10
0 -5 7 -7 16 -3 12 4 14 0 8 -21 -3 -15 -1 -32 5 -40 8 -9 8 -17 2 -20 -5 -3
-11 -1 -13 5 -2 6 -5 -14 -6 -45 -2 -44 1 -56 13 -56 25 0 17 -17 -11 -24 -30
-8 -65 18 -90 67 -8 15 -23 27 -34 27 -13 0 -20 8 -22 28 -2 19 -8 27 -20 26
-11 -1 -18 5 -18 15 0 10 -20 35 -45 56 -25 22 -44 45 -42 52 1 6 -1 11 -4 10
-14 -4 -47 35 -42 49 3 8 -1 14 -10 14 -8 0 -18 8 -21 17 -6 15 -8 15 -16 3
-7 -12 -11 -8 -16 17 -3 18 -15 40 -25 49 -11 9 -19 23 -19 31 0 7 -4 13 -10
13 -17 0 -52 41 -46 55 3 8 0 12 -7 10 -7 -3 -23 11 -37 29 -30 41 -49 53 -72
48z m497 -722 c3 -5 2 -10 -4 -10 -5 0 -13 5 -16 10 -3 6 -2 10 4 10 5 0 13
-4 16 -10z"/>
<path d="M1675 6771 c-10 -17 33 -74 77 -103 24 -15 50 -33 58 -40 8 -7 17
-13 20 -13 3 0 15 -10 28 -22 12 -13 31 -23 41 -23 10 0 21 -7 25 -15 10 -26
25 -16 35 22 6 20 9 37 8 37 -1 1 -16 11 -33 23 -18 12 -44 25 -58 29 -14 3
-36 16 -50 28 -37 35 -95 68 -106 61 -6 -3 -13 1 -16 9 -7 18 -20 21 -29 7z"/>
<path d="M10456 6661 c-4 -7 -5 -15 -2 -18 9 -9 19 4 14 18 -4 11 -6 11 -12 0z"/>
<path d="M1510 6543 c0 -6 28 -29 61 -52 43 -28 68 -39 84 -35 17 4 24 0 28
-15 3 -14 13 -21 29 -21 29 0 91 -22 111 -38 22 -18 87 -5 87 17 0 16 -72 61
-100 61 -8 1 -24 7 -34 15 -10 8 -23 12 -28 9 -4 -3 -15 2 -24 10 -8 9 -28 16
-44 16 -16 0 -31 4 -34 9 -3 5 -23 11 -43 14 -21 3 -50 9 -65 12 -17 4 -28 3
-28 -2z"/>
</g>
</svg>
